<svg width="32" height="32" viewBox="0 0 32 32" fill="none" xmlns="http://www.w3.org/2000/svg">
<path d="M5.8747 19.364L10.4107 14.828L14.1814 18.6L18.3907 14.3906L16 12H22.6667V18.6666L20.276 16.276L14.1814 22.3706L10.4107 18.6L7.1107 21.8986C8.60858 24.1531 10.9075 25.7538 13.5417 26.3764C16.1758 26.999 18.9481 26.5969 21.2969 25.2516C23.6456 23.9062 25.395 21.7183 26.1906 19.1312C26.9862 16.544 26.7686 13.7512 25.5817 11.3185C24.3948 8.88591 22.3275 6.99546 19.7988 6.03029C17.27 5.06511 14.4688 5.09739 11.9629 6.12059C9.45707 7.14378 7.4339 9.08137 6.30341 11.5407C5.17292 14 5.01966 16.7972 5.8747 19.3653V19.364ZM3.82403 21.4413L3.8107 21.428L3.81603 21.4226C3.05594 19.716 2.6643 17.8682 2.6667 16C2.6667 8.63596 8.63603 2.66663 16 2.66663C23.364 2.66663 29.3334 8.63596 29.3334 16C29.3334 23.364 23.364 29.3333 16 29.3333C10.5734 29.3333 5.9067 26.0933 3.82403 21.4413Z" fill="white"/>
</svg>
