<svg width="26" height="26" viewBox="0 0 26 26" fill="none" xmlns="http://www.w3.org/2000/svg">
<path d="M13 23.8333C7.01671 23.8333 2.16663 18.9832 2.16663 13C2.16663 7.01671 7.01671 2.16663 13 2.16663C18.9832 2.16663 23.8333 7.01671 23.8333 13C23.8333 18.9832 18.9832 23.8333 13 23.8333ZM13 21.6666C15.2985 21.6666 17.5029 20.7535 19.1282 19.1282C20.7535 17.5029 21.6666 15.2985 21.6666 13C21.6666 10.7014 20.7535 8.49702 19.1282 6.8717C17.5029 5.24639 15.2985 4.33329 13 4.33329C10.7014 4.33329 8.49702 5.24639 6.8717 6.8717C5.24639 8.49702 4.33329 10.7014 4.33329 13C4.33329 15.2985 5.24639 17.5029 6.8717 19.1282C8.49702 20.7535 10.7014 21.6666 13 21.6666ZM9.74996 8.66663H16.25L18.9583 12.4583L13 18.4166L7.04163 12.4583L9.74996 8.66663ZM10.8658 10.8333L9.86913 12.2308L13 15.3616L16.1308 12.2308L15.1341 10.8333H10.8658Z" fill="#8676FF"/>
</svg>
